<svg width="435" height="252" viewBox="0 0 435 252" fill="none" xmlns="http://www.w3.org/2000/svg">
<rect x="15" y="37" width="305" height="207" rx="5" fill="#3498DB"/>
<rect x="348" y="96" width="77" height="148" rx="5" fill="#3498DB"/>
<rect x="26.9024" y="12.8902" width="288.634" height="5.20732" fill="#3498DB"/>
<path d="M15 15.122L37.3171 2.23718V28.0067L15 15.122Z" fill="#3498DB"/>
<path d="M320 15.1219L297.683 28.0067V2.23718L320 15.1219Z" fill="#3498DB"/>
<rect x="351.005" y="90.4927" width="72.8683" height="1.29756" fill="#3498DB"/>
<path d="M348 91.0488L353.634 87.8382V94.2594L348 91.0488Z" fill="#3498DB"/>
<path d="M425 91.0488L419.366 94.2594V87.8382L425 91.0488Z" fill="#3498DB"/>
<rect x="24" y="48" width="287" height="184" fill="white"/>
<rect x="356" y="105" width="61" height="130" fill="white"/>
<path d="M54.5469 104.75L76.8594 160.438L99.1719 104.75H110.844V173H101.844V146.422L102.688 117.734L80.2812 173H73.3906L51.0312 117.875L51.9219 146.422V173H42.9219V104.75H54.5469ZM146.422 173.938C139.547 173.938 133.953 171.688 129.641 167.188C125.328 162.656 123.172 156.609 123.172 149.047V147.453C123.172 142.422 124.125 137.938 126.031 134C127.969 130.031 130.656 126.938 134.094 124.719C137.562 122.469 141.312 121.344 145.344 121.344C151.938 121.344 157.062 123.516 160.719 127.859C164.375 132.203 166.203 138.422 166.203 146.516V150.125H131.844C131.969 155.125 133.422 159.172 136.203 162.266C139.016 165.328 142.578 166.859 146.891 166.859C149.953 166.859 152.547 166.234 154.672 164.984C156.797 163.734 158.656 162.078 160.25 160.016L165.547 164.141C161.297 170.672 154.922 173.938 146.422 173.938ZM145.344 128.469C141.844 128.469 138.906 129.75 136.531 132.312C134.156 134.844 132.688 138.406 132.125 143H157.531V142.344C157.281 137.938 156.094 134.531 153.969 132.125C151.844 129.688 148.969 128.469 145.344 128.469ZM174.172 147.219C174.172 139.438 176.016 133.188 179.703 128.469C183.391 123.719 188.219 121.344 194.188 121.344C200.125 121.344 204.828 123.375 208.297 127.438V101H216.969V173H209L208.578 167.562C205.109 171.812 200.281 173.938 194.094 173.938C188.219 173.938 183.422 171.531 179.703 166.719C176.016 161.906 174.172 155.625 174.172 147.875V147.219ZM182.844 148.203C182.844 153.953 184.031 158.453 186.406 161.703C188.781 164.953 192.062 166.578 196.25 166.578C201.75 166.578 205.766 164.109 208.297 159.172V135.875C205.703 131.094 201.719 128.703 196.344 128.703C192.094 128.703 188.781 130.344 186.406 133.625C184.031 136.906 182.844 141.766 182.844 148.203ZM239.891 173H231.219V122.281H239.891V173ZM230.516 108.828C230.516 107.422 230.938 106.234 231.781 105.266C232.656 104.297 233.938 103.812 235.625 103.812C237.312 103.812 238.594 104.297 239.469 105.266C240.344 106.234 240.781 107.422 240.781 108.828C240.781 110.234 240.344 111.406 239.469 112.344C238.594 113.281 237.312 113.75 235.625 113.75C233.938 113.75 232.656 113.281 231.781 112.344C230.938 111.406 230.516 110.234 230.516 108.828ZM285.125 173C284.625 172 284.219 170.219 283.906 167.656C279.875 171.844 275.062 173.938 269.469 173.938C264.469 173.938 260.359 172.531 257.141 169.719C253.953 166.875 252.359 163.281 252.359 158.938C252.359 153.656 254.359 149.562 258.359 146.656C262.391 143.719 268.047 142.25 275.328 142.25H283.766V138.266C283.766 135.234 282.859 132.828 281.047 131.047C279.234 129.234 276.562 128.328 273.031 128.328C269.938 128.328 267.344 129.109 265.25 130.672C263.156 132.234 262.109 134.125 262.109 136.344H253.391C253.391 133.812 254.281 131.375 256.062 129.031C257.875 126.656 260.312 124.781 263.375 123.406C266.469 122.031 269.859 121.344 273.547 121.344C279.391 121.344 283.969 122.812 287.281 125.75C290.594 128.656 292.312 132.672 292.438 137.797V161.141C292.438 165.797 293.031 169.5 294.219 172.25V173H285.125ZM270.734 166.391C273.453 166.391 276.031 165.688 278.469 164.281C280.906 162.875 282.672 161.047 283.766 158.797V148.391H276.969C266.344 148.391 261.031 151.5 261.031 157.719C261.031 160.438 261.938 162.562 263.75 164.094C265.562 165.625 267.891 166.391 270.734 166.391Z" fill="black"/>
<path d="M399 202.844V206.613H385.855V220.949H399V224.699H370.562V220.949H382.789V206.613H370.562V202.844H399ZM388.238 197.707C386.168 197.707 384.306 197.303 382.652 196.496C380.999 195.676 379.723 194.543 378.824 193.098C377.926 191.639 377.477 189.979 377.477 188.117C377.477 185.24 378.473 182.915 380.465 181.145C382.457 179.361 385.107 178.469 388.414 178.469H388.668C390.725 178.469 392.574 178.866 394.215 179.66C395.842 180.441 397.112 181.568 398.023 183.039C398.935 184.497 399.391 186.177 399.391 188.078C399.391 190.943 398.395 193.267 396.402 195.051C394.41 196.822 391.773 197.707 388.492 197.707H388.238ZM388.668 194.074C391.012 194.074 392.893 193.534 394.312 192.453C395.732 191.359 396.441 189.901 396.441 188.078C396.441 186.242 395.725 184.784 394.293 183.703C392.848 182.622 390.829 182.082 388.238 182.082C385.921 182.082 384.046 182.635 382.613 183.742C381.168 184.836 380.445 186.294 380.445 188.117C380.445 189.901 381.155 191.34 382.574 192.434C383.993 193.527 386.025 194.074 388.668 194.074ZM388.238 174.895C386.168 174.895 384.306 174.491 382.652 173.684C380.999 172.863 379.723 171.73 378.824 170.285C377.926 168.827 377.477 167.167 377.477 165.305C377.477 162.427 378.473 160.103 380.465 158.332C382.457 156.548 385.107 155.656 388.414 155.656H388.668C390.725 155.656 392.574 156.053 394.215 156.848C395.842 157.629 397.112 158.755 398.023 160.227C398.935 161.685 399.391 163.365 399.391 165.266C399.391 168.13 398.395 170.454 396.402 172.238C394.41 174.009 391.773 174.895 388.492 174.895H388.238ZM388.668 171.262C391.012 171.262 392.893 170.721 394.312 169.641C395.732 168.547 396.441 167.089 396.441 165.266C396.441 163.43 395.725 161.971 394.293 160.891C392.848 159.81 390.829 159.27 388.238 159.27C385.921 159.27 384.046 159.823 382.613 160.93C381.168 162.023 380.445 163.482 380.445 165.305C380.445 167.089 381.155 168.527 382.574 169.621C383.993 170.715 386.025 171.262 388.668 171.262ZM389.215 145.227L391.578 147.492H399V151.105H369V147.492H387.145L384.82 145.559L377.867 138.977V134.582L386.695 142.805L399 133.625V137.863L389.215 145.227ZM393.395 118.547C392.418 118.547 391.663 118.918 391.129 119.66C390.582 120.389 390.113 121.672 389.723 123.508C389.332 125.331 388.863 126.783 388.316 127.863C387.77 128.931 387.118 129.725 386.363 130.246C385.608 130.754 384.71 131.008 383.668 131.008C381.936 131.008 380.471 130.279 379.273 128.82C378.076 127.349 377.477 125.474 377.477 123.195C377.477 120.799 378.095 118.859 379.332 117.375C380.569 115.878 382.151 115.129 384.078 115.129V118.762C383.089 118.762 382.236 119.185 381.52 120.031C380.803 120.865 380.445 121.919 380.445 123.195C380.445 124.51 380.732 125.539 381.305 126.281C381.878 127.023 382.626 127.395 383.551 127.395C384.423 127.395 385.081 127.049 385.523 126.359C385.966 125.669 386.389 124.426 386.793 122.629C387.197 120.819 387.678 119.354 388.238 118.234C388.798 117.115 389.475 116.288 390.27 115.754C391.051 115.207 392.008 114.934 393.141 114.934C395.029 114.934 396.546 115.689 397.691 117.199C398.824 118.71 399.391 120.669 399.391 123.078C399.391 124.771 399.091 126.268 398.492 127.57C397.893 128.872 397.06 129.895 395.992 130.637C394.911 131.366 393.746 131.73 392.496 131.73V128.117C393.707 128.052 394.671 127.57 395.387 126.672C396.09 125.76 396.441 124.563 396.441 123.078C396.441 121.711 396.168 120.617 395.621 119.797C395.061 118.964 394.319 118.547 393.395 118.547Z" fill="black"/>
</svg>
